<svg width="20" height="20" viewBox="0 0 20 20" fill="none" xmlns="http://www.w3.org/2000/svg">
<path fill-rule="evenodd" clip-rule="evenodd" d="M3.09777 1.77685C3.09777 5.97097 3.09777 10.1521 3.09777 14.3615C4.55874 14.3615 6.00678 14.3615 7.47656 14.3615C7.47656 15.1632 7.47656 15.937 7.47656 16.7467C7.54416 16.685 7.58207 16.6518 7.61852 16.6169C8.35679 15.9114 9.09712 15.2077 9.83128 14.498C9.93591 14.3967 10.0405 14.3556 10.1892 14.3561C11.7196 14.3609 13.2499 14.3618 14.7799 14.3533C14.8925 14.3527 15.0321 14.297 15.1121 14.2213C16.066 13.3202 17.0095 12.4087 17.9611 11.5051C18.0675 11.4037 18.1063 11.3027 18.106 11.1616C18.1025 8.10618 18.1033 5.05074 18.1033 1.9953C18.1033 1.92492 18.1033 1.85426 18.1033 1.77685C13.0886 1.77685 8.09875 1.77685 3.09777 1.77685ZM4.99635 19.6923C4.99635 18.9142 4.99635 18.1367 4.99635 17.3358C3.33112 17.3358 1.68412 17.3358 0.0127144 17.3358C0.00771814 17.237 0.000370672 17.1607 0.000370672 17.0842C-0.000217125 12.6502 -0.000511023 8.21625 0.00272186 3.78228C0.00272186 3.6542 0.0265277 3.52048 0.0682613 3.39859C0.435635 2.32832 0.812413 1.26085 1.17773 0.190015C1.22593 0.0489817 1.28676 0 1.44665 0C7.54534 0.00450406 13.644 0.00394105 19.7427 0.00394105C19.8024 0.00394105 19.8623 0.00394105 19.9473 0.00394105C19.9473 0.0968373 19.9473 0.173969 19.9473 0.251383C19.9473 4.07279 19.9464 7.89421 19.9508 11.7153C19.9508 11.875 19.9017 11.985 19.7845 12.0968C18.0152 13.785 16.2491 15.4762 14.4869 17.1712C14.37 17.2835 14.2553 17.3305 14.0887 17.3294C13.0151 17.3223 11.9415 17.3305 10.8682 17.3215C10.6624 17.3198 10.5155 17.3713 10.3691 17.5146C9.66111 18.2077 8.94253 18.8914 8.22189 19.5727C8.15341 19.6374 8.04555 19.7016 7.95562 19.7024C6.99633 19.7115 6.03705 19.7078 5.07747 19.7069C5.05631 19.7069 5.03515 19.6996 4.99635 19.6923Z" fill="white"/>
<path fill-rule="evenodd" clip-rule="evenodd" d="M9.68201 4.78632C9.68201 6.57502 9.68201 8.3476 9.68201 10.1357C9.09625 10.1357 8.51496 10.1357 7.92165 10.1357C7.92165 8.35835 7.92165 6.5804 7.92165 4.78632C8.50042 4.78632 9.08171 4.78632 9.68201 4.78632Z" fill="white"/>
<path fill-rule="evenodd" clip-rule="evenodd" d="M14.6697 10.1357C14.0787 10.1357 13.4997 10.1357 12.9093 10.1357C12.9093 8.35231 12.9093 6.57709 12.9093 4.78632C13.4892 4.78632 14.0739 4.78632 14.6697 4.78632C14.6697 6.56211 14.6697 8.33761 14.6697 10.1357Z" fill="white"/>
</svg>