<svg width="21" height="18" viewBox="0 0 21 18" fill="none" xmlns="http://www.w3.org/2000/svg">
<path d="M3.69761 0.823575C2.98554 -0.138353 1.58637 -0.288264 0.67441 0.536245C-0.112622 1.26081 -0.175083 2.48509 0.462039 3.34707L4.57209 8.8563L0.437052 14.4155C-0.200069 15.2775 -0.150098 16.5018 0.649427 17.2263C1.56139 18.0508 2.96055 17.9009 3.67263 16.939L9.4442 9.18111C9.58162 8.99372 9.58162 8.73137 9.4442 8.54399L3.69761 0.823575Z" fill="white"/>
<path d="M16.3651 0.823575C17.0771 -0.138353 18.4763 -0.288264 19.3883 0.536245C20.1753 1.26081 20.2378 2.48509 19.6006 3.34707L15.4906 8.8563L19.6256 14.4155C20.2628 15.2775 20.2128 16.5018 19.4133 17.2263C18.5013 18.0508 17.1021 17.9009 16.3901 16.939L10.631 9.16862C10.4936 8.98123 10.4936 8.71888 10.631 8.53149L16.3651 0.823575Z" fill="white"/>
</svg>